<?xml version="1.0" encoding="UTF-8"?>
<!DOCTYPE svg PUBLIC "-//W3C//DTD SVG 1.1//EN" "http://www.w3.org/Graphics/SVG/1.1/DTD/svg11.dtd">
<svg version="1.2" xmlns="http://www.w3.org/2000/svg" xmlns:xlink="http://www.w3.org/1999/xlink" x="0" y="0" width="752" height="321" viewBox="0 0 752 321">
<style type="text/css"><![CDATA[
text { font:12px Dialog; }
]]></style>
<rect x="-1071" y="-485" width="2348" height="1291" style="fill:rgb(243,244,249);stroke:none" />
<clipPath id="clip1"><path d="M14,14 L738,14 L738,307 L14,307 L14,14 Z" /></clipPath>
<path d="M189,159.9303436 L198.9998779,159.9801025" style="fill:none;stroke:rgb(0,64,128)" clip-path="url(#clip1)" />
<clipPath id="clip2"><path d="M14,14 L738,14 L738,307 L14,307 L14,14 Z" /></clipPath>
<path d="M198.9998779,159.9801025 C204.3332367,74.4600296 212.3332825,31.6999969 223,31.6999969" style="fill:none;stroke:rgb(0,64,128)" clip-path="url(#clip2)" />
<clipPath id="clip3"><path d="M14,14 L738,14 L738,307 L14,307 L14,14 Z" /></clipPath>
<path d="M198.9998779,159.9801025 C204.3332367,132.5467072 212.3332825,118.8300018 223,118.8300018" style="fill:none;stroke:rgb(0,64,128)" clip-path="url(#clip3)" />
<clipPath id="clip4"><path d="M14,14 L738,14 L738,307 L14,307 L14,14 Z" /></clipPath>
<path d="M198.9998779,159.9801025 C204.3332367,189.1266937 212.3332825,203.6999969 223,203.6999969" style="fill:none;stroke:rgb(0,64,128)" clip-path="url(#clip4)" />
<clipPath id="clip5"><path d="M14,14 L738,14 L738,307 L14,307 L14,14 Z" /></clipPath>
<path d="M198.9998779,159.9801025 C204.3332367,231.1055908 212.3332825,266.668335 223,266.668335" style="fill:none;stroke:rgb(0,64,128)" clip-path="url(#clip5)" />
<clipPath id="clip6"><path d="M14,133 L192,133 L192,187 L14,187 L14,133 Z" /></clipPath>
<path d="M16,143 C16,138.5817261 19.5817184,135 24,135 L181,135 C185.4182739,135 189,138.5817261 189,143 L189,176 C189,180.4182739 185.4182739,184 181,184 L24,184 C19.5817184,184 16,180.4182739 16,176 Z M16,143" style="fill:rgb(104,163,223);stroke:none" clip-path="url(#clip6)" />
<clipPath id="clip7"><path d="M14,133 L192,133 L192,187 L14,187 L14,133 Z" /></clipPath>
<path d="M16,143 C16,138.5817261 19.5817184,135 24,135 L181,135 C185.4182739,135 189,138.5817261 189,143 L189,176 C189,180.4182739 185.4182739,184 181,184 L24,184 C19.5817184,184 16,180.4182739 16,176 Z M16,143" style="fill:none;stroke:rgb(0,64,128)" clip-path="url(#clip7)" />
<text x="40" y="169" style="font:18px Verdana">毕业小论文提纲</text>
<clipPath id="clip8"><path d="M221,14 L449,14 L449,51 L221,51 L221,14 Z" /></clipPath>
<path d="M303,31.6999969 L315.9998169,31.7649994" style="fill:none;stroke:rgb(0,64,128)" clip-path="url(#clip8)" />
<clipPath id="clip9"><path d="M221,14 L449,14 L449,51 L221,51 L221,14 Z" /></clipPath>
<path d="M315.9998169,31.7649994 C317.9998779,31.2550049 320.999939,31 325,31" style="fill:none;stroke:rgb(0,64,128)" clip-path="url(#clip9)" />
<clipPath id="clip10"><path d="M221,14 L449,14 L449,51 L221,51 L221,14 Z" /></clipPath>
<path d="M315.9998169,31.7649994 C317.9998779,43.2549973 320.999939,49 325,49" style="fill:none;stroke:rgb(0,64,128)" clip-path="url(#clip10)" />
<clipPath id="clip11"><path d="M221,16 L306,16 L306,48 L221,48 L221,16 Z" /></clipPath>
<path d="M223,23 C223,20.2385712 225.2385712,18 228,18 L298,18 C300.7614136,18 303,20.2385712 303,23 L303,40 C303,42.7614288 300.7614136,45 298,45 L228,45 C225.2385712,45 223,42.7614288 223,40 Z M223,23" style="fill:rgb(211,223,255);stroke:none" clip-path="url(#clip11)" />
<clipPath id="clip12"><path d="M221,16 L306,16 L306,48 L221,48 L221,16 Z" /></clipPath>
<path d="M223,23 C223,20.2385712 225.2385712,18 228,18 L298,18 C300.7614136,18 303,20.2385712 303,23 L303,40 C303,42.7614288 300.7614136,45 298,45 L228,45 C225.2385712,45 223,42.7614288 223,40 Z M223,23" style="fill:none;stroke:rgb(0,64,128)" clip-path="url(#clip12)" />
<text x="230" y="39" style="font:13px Verdana">多核的介绍</text>
<clipPath id="clip13"><path d="M304,26 L317,26 L317,39 L304,39 L304,26 Z" /></clipPath>
<path d="M314.5,32 C314.5,29.5147247 312.4852905,27.5 310,27.5 C307.5147095,27.5 305.5,29.5147247 305.5,32 C305.5,34.4852829 307.5147095,36.5 310,36.5 C312.4852905,36.5 314.5,34.4852829 314.5,32 Z M314.5,32" style="fill:rgb(210,230,255);stroke:none" clip-path="url(#clip13)" />
<clipPath id="clip14"><path d="M304,26 L317,26 L317,39 L304,39 L304,26 Z" /></clipPath>
<path d="M314.5,32 C314.5,29.5147247 312.4852905,27.5 310,27.5 C307.5147095,27.5 305.5,29.5147247 305.5,32 C305.5,34.4852829 307.5147095,36.5 310,36.5 C312.4852905,36.5 314.5,34.4852829 314.5,32 Z M314.5,32" style="fill:none;stroke:rgb(180,200,240)" clip-path="url(#clip14)" />
<clipPath id="clip15"><path d="M304,26 L317,26 L317,39 L304,39 L304,26 Z" /></clipPath>
<path d="M308,32 L312,32" style="fill:none;stroke:rgb(150,160,200)" clip-path="url(#clip15)" />
<clipPath id="clip16"><path d="M323,14 L409,14 L409,33 L323,33 L323,14 Z" /></clipPath>
<path d="M325,31 L406,31" style="fill:none;stroke:rgb(0,64,128)" clip-path="url(#clip16)" />
<text x="330" y="29" style="font:10px Verdana">为什么需要多核</text>
<clipPath id="clip17"><path d="M323,32 L449,32 L449,51 L323,51 L323,32 Z" /></clipPath>
<path d="M325,49 L446,49" style="fill:none;stroke:rgb(0,64,128)" clip-path="url(#clip17)" />
<text x="330" y="47" style="font:10px Verdana">典型多核处理器硬件架构</text>
<clipPath id="clip18"><path d="M221,59 L471,59 L471,180 L221,180 L221,59 Z" /></clipPath>
<path d="M355,118.8300018 L367.9998474,118.8950043" style="fill:none;stroke:rgb(0,64,128)" clip-path="url(#clip18)" />
<clipPath id="clip19"><path d="M221,59 L471,59 L471,180 L221,180 L221,59 Z" /></clipPath>
<path d="M367.9998474,118.8950043 C369.9998779,98.2983322 372.9999084,88 377,88" style="fill:none;stroke:rgb(0,64,128)" clip-path="url(#clip19)" />
<clipPath id="clip20"><path d="M221,59 L471,59 L471,180 L221,180 L221,59 Z" /></clipPath>
<path d="M367.9998474,118.8950043 C369.9998779,124.9649963 372.9999084,128 377,128" style="fill:none;stroke:rgb(0,64,128)" clip-path="url(#clip20)" />
<clipPath id="clip21"><path d="M221,59 L471,59 L471,180 L221,180 L221,59 Z" /></clipPath>
<path d="M367.9998474,118.8950043 C369.9998779,151.6316681 372.9999084,168 377,168" style="fill:none;stroke:rgb(0,64,128)" clip-path="url(#clip21)" />
<clipPath id="clip22"><path d="M221,103 L358,103 L358,135 L221,135 L221,103 Z" /></clipPath>
<path d="M223,110 C223,107.2385712 225.2385712,105 228,105 L350,105 C352.7614136,105 355,107.2385712 355,110 L355,127 C355,129.7614288 352.7614136,132 350,132 L228,132 C225.2385712,132 223,129.7614288 223,127 Z M223,110" style="fill:rgb(211,223,255);stroke:none" clip-path="url(#clip22)" />
<clipPath id="clip23"><path d="M221,103 L358,103 L358,135 L221,135 L221,103 Z" /></clipPath>
<path d="M223,110 C223,107.2385712 225.2385712,105 228,105 L350,105 C352.7614136,105 355,107.2385712 355,110 L355,127 C355,129.7614288 352.7614136,132 350,132 L228,132 C225.2385712,132 223,129.7614288 223,127 Z M223,110" style="fill:none;stroke:rgb(0,64,128)" clip-path="url(#clip23)" />
<text x="230" y="126" style="font:13px Verdana">目前三种多处理模式</text>
<clipPath id="clip24"><path d="M356,113 L369,113 L369,126 L356,126 L356,113 Z" /></clipPath>
<path d="M366.5,119 C366.5,116.5147171 364.4852905,114.5 362,114.5 C359.5147095,114.5 357.5,116.5147171 357.5,119 C357.5,121.4852829 359.5147095,123.5 362,123.5 C364.4852905,123.5 366.5,121.4852829 366.5,119 Z M366.5,119" style="fill:rgb(210,230,255);stroke:none" clip-path="url(#clip24)" />
<clipPath id="clip25"><path d="M356,113 L369,113 L369,126 L356,126 L356,113 Z" /></clipPath>
<path d="M366.5,119 C366.5,116.5147171 364.4852905,114.5 362,114.5 C359.5147095,114.5 357.5,116.5147171 357.5,119 C357.5,121.4852829 359.5147095,123.5 362,123.5 C364.4852905,123.5 366.5,121.4852829 366.5,119 Z M366.5,119" style="fill:none;stroke:rgb(180,200,240)" clip-path="url(#clip25)" />
<clipPath id="clip26"><path d="M356,113 L369,113 L369,126 L356,126 L356,113 Z" /></clipPath>
<path d="M360,119 L364,119" style="fill:none;stroke:rgb(150,160,200)" clip-path="url(#clip26)" />
<clipPath id="clip27"><path d="M375,59 L471,59 L471,100 L375,100 L375,59 Z" /></clipPath>
<path d="M410,88 L423,88" style="fill:none;stroke:rgb(0,64,128)" clip-path="url(#clip27)" />
<clipPath id="clip28"><path d="M375,59 L471,59 L471,100 L375,100 L375,59 Z" /></clipPath>
<path d="M423,88 C425,81.3333359 428,78 432,78" style="fill:none;stroke:rgb(0,64,128)" clip-path="url(#clip28)" />
<clipPath id="clip29"><path d="M375,59 L471,59 L471,100 L375,100 L375,59 Z" /></clipPath>
<path d="M423,88 C425,94.6666641 428,98 432,98" style="fill:none;stroke:rgb(0,64,128)" clip-path="url(#clip29)" />
<clipPath id="clip30"><path d="M375,69 L413,69 L413,90 L375,90 L375,69 Z" /></clipPath>
<path d="M377,88 L410,88" style="fill:none;stroke:rgb(0,64,128)" clip-path="url(#clip30)" />
<text x="382" y="84" style="font:10px Verdana">AMP</text>
<clipPath id="clip31"><path d="M411,73 L424,73 L424,86 L411,86 L411,73 Z" /></clipPath>
<path d="M421.5,79 C421.5,76.5147171 419.4852905,74.5 417,74.5 C414.5147095,74.5 412.5,76.5147171 412.5,79 C412.5,81.4852829 414.5147095,83.5 417,83.5 C419.4852905,83.5 421.5,81.4852829 421.5,79 Z M421.5,79" style="fill:rgb(210,230,255);stroke:none" clip-path="url(#clip31)" />
<clipPath id="clip32"><path d="M411,73 L424,73 L424,86 L411,86 L411,73 Z" /></clipPath>
<path d="M421.5,79 C421.5,76.5147171 419.4852905,74.5 417,74.5 C414.5147095,74.5 412.5,76.5147171 412.5,79 C412.5,81.4852829 414.5147095,83.5 417,83.5 C419.4852905,83.5 421.5,81.4852829 421.5,79 Z M421.5,79" style="fill:none;stroke:rgb(180,200,240)" clip-path="url(#clip32)" />
<clipPath id="clip33"><path d="M411,73 L424,73 L424,86 L411,86 L411,73 Z" /></clipPath>
<path d="M415,79 L419,79" style="fill:none;stroke:rgb(150,160,200)" clip-path="url(#clip33)" />
<clipPath id="clip34"><path d="M430,59 L468,59 L468,80 L430,80 L430,59 Z" /></clipPath>
<path d="M432,78 L465,78" style="fill:none;stroke:rgb(0,64,128)" clip-path="url(#clip34)" />
<text x="437" y="74" style="font:10px Verdana">Pros</text>
<clipPath id="clip35"><path d="M430,79 L471,79 L471,100 L430,100 L430,79 Z" /></clipPath>
<path d="M432,98 L468,98" style="fill:none;stroke:rgb(0,64,128)" clip-path="url(#clip35)" />
<text x="437" y="94" style="font:10px Verdana">Cons</text>
<clipPath id="clip36"><path d="M375,99 L471,99 L471,140 L375,140 L375,99 Z" /></clipPath>
<path d="M410,128 L423,128" style="fill:none;stroke:rgb(0,64,128)" clip-path="url(#clip36)" />
<clipPath id="clip37"><path d="M375,99 L471,99 L471,140 L375,140 L375,99 Z" /></clipPath>
<path d="M423,128 C425,121.3333282 428,118 432,118" style="fill:none;stroke:rgb(0,64,128)" clip-path="url(#clip37)" />
<clipPath id="clip38"><path d="M375,99 L471,99 L471,140 L375,140 L375,99 Z" /></clipPath>
<path d="M423,128 C425,134.6666718 428,138 432,138" style="fill:none;stroke:rgb(0,64,128)" clip-path="url(#clip38)" />
<clipPath id="clip39"><path d="M375,109 L413,109 L413,130 L375,130 L375,109 Z" /></clipPath>
<path d="M377,128 L410,128" style="fill:none;stroke:rgb(0,64,128)" clip-path="url(#clip39)" />
<text x="382" y="124" style="font:10px Verdana">SMP</text>
<clipPath id="clip40"><path d="M411,113 L424,113 L424,126 L411,126 L411,113 Z" /></clipPath>
<path d="M421.5,119 C421.5,116.5147171 419.4852905,114.5 417,114.5 C414.5147095,114.5 412.5,116.5147171 412.5,119 C412.5,121.4852829 414.5147095,123.5 417,123.5 C419.4852905,123.5 421.5,121.4852829 421.5,119 Z M421.5,119" style="fill:rgb(210,230,255);stroke:none" clip-path="url(#clip40)" />
<clipPath id="clip41"><path d="M411,113 L424,113 L424,126 L411,126 L411,113 Z" /></clipPath>
<path d="M421.5,119 C421.5,116.5147171 419.4852905,114.5 417,114.5 C414.5147095,114.5 412.5,116.5147171 412.5,119 C412.5,121.4852829 414.5147095,123.5 417,123.5 C419.4852905,123.5 421.5,121.4852829 421.5,119 Z M421.5,119" style="fill:none;stroke:rgb(180,200,240)" clip-path="url(#clip41)" />
<clipPath id="clip42"><path d="M411,113 L424,113 L424,126 L411,126 L411,113 Z" /></clipPath>
<path d="M415,119 L419,119" style="fill:none;stroke:rgb(150,160,200)" clip-path="url(#clip42)" />
<clipPath id="clip43"><path d="M430,99 L468,99 L468,120 L430,120 L430,99 Z" /></clipPath>
<path d="M432,118 L465,118" style="fill:none;stroke:rgb(0,64,128)" clip-path="url(#clip43)" />
<text x="437" y="114" style="font:10px Verdana">Pros</text>
<clipPath id="clip44"><path d="M430,119 L471,119 L471,140 L430,140 L430,119 Z" /></clipPath>
<path d="M432,138 L468,138" style="fill:none;stroke:rgb(0,64,128)" clip-path="url(#clip44)" />
<text x="437" y="134" style="font:10px Verdana">Cons</text>
<clipPath id="clip45"><path d="M375,139 L471,139 L471,180 L375,180 L375,139 Z" /></clipPath>
<path d="M410,168 L423,168" style="fill:none;stroke:rgb(0,64,128)" clip-path="url(#clip45)" />
<clipPath id="clip46"><path d="M375,139 L471,139 L471,180 L375,180 L375,139 Z" /></clipPath>
<path d="M423,168 C425,161.3333282 428,158 432,158" style="fill:none;stroke:rgb(0,64,128)" clip-path="url(#clip46)" />
<clipPath id="clip47"><path d="M375,139 L471,139 L471,180 L375,180 L375,139 Z" /></clipPath>
<path d="M423,168 C425,174.6666718 428,178 432,178" style="fill:none;stroke:rgb(0,64,128)" clip-path="url(#clip47)" />
<clipPath id="clip48"><path d="M375,149 L413,149 L413,170 L375,170 L375,149 Z" /></clipPath>
<path d="M377,168 L410,168" style="fill:none;stroke:rgb(0,64,128)" clip-path="url(#clip48)" />
<text x="382" y="164" style="font:10px Verdana">BMP</text>
<clipPath id="clip49"><path d="M411,153 L424,153 L424,166 L411,166 L411,153 Z" /></clipPath>
<path d="M421.5,159 C421.5,156.5147247 419.4852905,154.5 417,154.5 C414.5147095,154.5 412.5,156.5147247 412.5,159 C412.5,161.4852753 414.5147095,163.5 417,163.5 C419.4852905,163.5 421.5,161.4852753 421.5,159 Z M421.5,159" style="fill:rgb(210,230,255);stroke:none" clip-path="url(#clip49)" />
<clipPath id="clip50"><path d="M411,153 L424,153 L424,166 L411,166 L411,153 Z" /></clipPath>
<path d="M421.5,159 C421.5,156.5147247 419.4852905,154.5 417,154.5 C414.5147095,154.5 412.5,156.5147247 412.5,159 C412.5,161.4852753 414.5147095,163.5 417,163.5 C419.4852905,163.5 421.5,161.4852753 421.5,159 Z M421.5,159" style="fill:none;stroke:rgb(180,200,240)" clip-path="url(#clip50)" />
<clipPath id="clip51"><path d="M411,153 L424,153 L424,166 L411,166 L411,153 Z" /></clipPath>
<path d="M415,159 L419,159" style="fill:none;stroke:rgb(150,160,200)" clip-path="url(#clip51)" />
<clipPath id="clip52"><path d="M430,139 L468,139 L468,160 L430,160 L430,139 Z" /></clipPath>
<path d="M432,158 L465,158" style="fill:none;stroke:rgb(0,64,128)" clip-path="url(#clip52)" />
<text x="437" y="154" style="font:10px Verdana">Pros</text>
<clipPath id="clip53"><path d="M430,159 L471,159 L471,180 L430,180 L430,159 Z" /></clipPath>
<path d="M432,178 L468,178" style="fill:none;stroke:rgb(0,64,128)" clip-path="url(#clip53)" />
<text x="437" y="173" style="font:10px Verdana">Cons</text>
<clipPath id="clip54"><path d="M221,188 L480,188 L480,220 L221,220 L221,188 Z" /></clipPath>
<path d="M303,203.6999969 L315.9998169,203.7649994" style="fill:none;stroke:rgb(0,64,128)" clip-path="url(#clip54)" />
<clipPath id="clip55"><path d="M221,188 L480,188 L480,220 L221,220 L221,188 Z" /></clipPath>
<path d="M315.9998169,203.7649994 C317.9998779,209.9216614 320.999939,213 325,213" style="fill:none;stroke:rgb(0,64,128)" clip-path="url(#clip55)" />
<clipPath id="clip56"><path d="M221,188 L306,188 L306,220 L221,220 L221,188 Z" /></clipPath>
<path d="M223,195 C223,192.2385712 225.2385712,190 228,190 L298,190 C300.7614136,190 303,192.2385712 303,195 L303,212 C303,214.7614288 300.7614136,217 298,217 L228,217 C225.2385712,217 223,214.7614288 223,212 Z M223,195" style="fill:rgb(211,223,255);stroke:none" clip-path="url(#clip56)" />
<clipPath id="clip57"><path d="M221,188 L306,188 L306,220 L221,220 L221,188 Z" /></clipPath>
<path d="M223,195 C223,192.2385712 225.2385712,190 228,190 L298,190 C300.7614136,190 303,192.2385712 303,195 L303,212 C303,214.7614288 300.7614136,217 298,217 L228,217 C225.2385712,217 223,214.7614288 223,212 Z M223,195" style="fill:none;stroke:rgb(0,64,128)" clip-path="url(#clip57)" />
<text x="230" y="210" style="font:13px Verdana">我们的问题</text>
<clipPath id="clip58"><path d="M304,198 L317,198 L317,211 L304,211 L304,198 Z" /></clipPath>
<path d="M314.5,204 C314.5,201.5147095 312.4852905,199.5 310,199.5 C307.5147095,199.5 305.5,201.5147095 305.5,204 C305.5,206.4852905 307.5147095,208.5 310,208.5 C312.4852905,208.5 314.5,206.4852905 314.5,204 Z M314.5,204" style="fill:rgb(210,230,255);stroke:none" clip-path="url(#clip58)" />
<clipPath id="clip59"><path d="M304,198 L317,198 L317,211 L304,211 L304,198 Z" /></clipPath>
<path d="M314.5,204 C314.5,201.5147095 312.4852905,199.5 310,199.5 C307.5147095,199.5 305.5,201.5147095 305.5,204 C305.5,206.4852905 307.5147095,208.5 310,208.5 C312.4852905,208.5 314.5,206.4852905 314.5,204 Z M314.5,204" style="fill:none;stroke:rgb(180,200,240)" clip-path="url(#clip59)" />
<clipPath id="clip60"><path d="M304,198 L317,198 L317,211 L304,211 L304,198 Z" /></clipPath>
<path d="M308,204 L312,204" style="fill:none;stroke:rgb(150,160,200)" clip-path="url(#clip60)" />
<clipPath id="clip61"><path d="M323,194 L480,194 L480,215 L323,215 L323,194 Z" /></clipPath>
<path d="M325,213 L477,213" style="fill:none;stroke:rgb(0,64,128)" clip-path="url(#clip61)" />
<text x="330" y="208" style="font:10px Verdana">多核体系结构的介绍（NUMA）</text>
<clipPath id="clip62"><path d="M221,228 L738,228 L738,307 L221,307 L221,228 Z" /></clipPath>
<path d="M290,266.6666565 L302.9998169,266.7313538" style="fill:none;stroke:rgb(0,64,128)" clip-path="url(#clip62)" />
<clipPath id="clip63"><path d="M221,228 L738,228 L738,307 L221,307 L221,228 Z" /></clipPath>
<path d="M302.9998169,266.7313538 C304.9998779,259.5771179 307.999939,256 312,256" style="fill:none;stroke:rgb(0,64,128)" clip-path="url(#clip63)" />
<clipPath id="clip64"><path d="M221,228 L738,228 L738,307 L221,307 L221,228 Z" /></clipPath>
<path d="M302.9998169,266.7313538 C304.9998779,285.5771179 307.999939,295 312,295" style="fill:none;stroke:rgb(0,64,128)" clip-path="url(#clip64)" />
<clipPath id="clip65"><path d="M221,251 L293,251 L293,283 L221,283 L221,251 Z" /></clipPath>
<path d="M223,258 C223,255.2385712 225.2385712,253 228,253 L285,253 C287.7614136,253 290,255.2385712 290,258 L290,275 C290,277.7614136 287.7614136,280 285,280 L228,280 C225.2385712,280 223,277.7614136 223,275 Z M223,258" style="fill:rgb(211,223,255);stroke:none" clip-path="url(#clip65)" />
<clipPath id="clip66"><path d="M221,251 L293,251 L293,283 L221,283 L221,251 Z" /></clipPath>
<path d="M223,258 C223,255.2385712 225.2385712,253 228,253 L285,253 C287.7614136,253 290,255.2385712 290,258 L290,275 C290,277.7614136 287.7614136,280 285,280 L228,280 C225.2385712,280 223,277.7614136 223,275 Z M223,258" style="fill:none;stroke:rgb(0,64,128)" clip-path="url(#clip66)" />
<text x="230" y="273" style="font:13px Verdana">解决方案</text>
<clipPath id="clip67"><path d="M291,261 L304,261 L304,274 L291,274 L291,261 Z" /></clipPath>
<path d="M301.5,267 C301.5,264.5147095 299.4852905,262.5 297,262.5 C294.5147095,262.5 292.5,264.5147095 292.5,267 C292.5,269.4852905 294.5147095,271.5 297,271.5 C299.4852905,271.5 301.5,269.4852905 301.5,267 Z M301.5,267" style="fill:rgb(210,230,255);stroke:none" clip-path="url(#clip67)" />
<clipPath id="clip68"><path d="M291,261 L304,261 L304,274 L291,274 L291,261 Z" /></clipPath>
<path d="M301.5,267 C301.5,264.5147095 299.4852905,262.5 297,262.5 C294.5147095,262.5 292.5,264.5147095 292.5,267 C292.5,269.4852905 294.5147095,271.5 297,271.5 C299.4852905,271.5 301.5,269.4852905 301.5,267 Z M301.5,267" style="fill:none;stroke:rgb(180,200,240)" clip-path="url(#clip68)" />
<clipPath id="clip69"><path d="M291,261 L304,261 L304,274 L291,274 L291,261 Z" /></clipPath>
<path d="M295,267 L299,267" style="fill:none;stroke:rgb(150,160,200)" clip-path="url(#clip69)" />
<clipPath id="clip70"><path d="M310,228 L738,228 L738,269 L310,269 L310,228 Z" /></clipPath>
<path d="M443,256 L456,256" style="fill:none;stroke:rgb(0,64,128)" clip-path="url(#clip70)" />
<clipPath id="clip71"><path d="M310,228 L738,228 L738,269 L310,269 L310,228 Z" /></clipPath>
<path d="M456,256 C458,250 461,247 465,247" style="fill:none;stroke:rgb(0,64,128)" clip-path="url(#clip71)" />
<clipPath id="clip72"><path d="M310,228 L738,228 L738,269 L310,269 L310,228 Z" /></clipPath>
<path d="M456,256 C458,263.3333435 461,267 465,267" style="fill:none;stroke:rgb(0,64,128)" clip-path="url(#clip72)" />
<clipPath id="clip73"><path d="M310,239 L446,239 L446,258 L310,258 L310,239 Z" /></clipPath>
<path d="M312,256 L443,256" style="fill:none;stroke:rgb(0,64,128)" clip-path="url(#clip73)" />
<text x="317" y="253" style="font:10px Verdana">提出新的多核操作系统模式</text>
<clipPath id="clip74"><path d="M444,242 L457,242 L457,255 L444,255 L444,242 Z" /></clipPath>
<path d="M454.5,248 C454.5,245.5147095 452.4852905,243.5 450,243.5 C447.5147095,243.5 445.5,245.5147095 445.5,248 C445.5,250.4852905 447.5147095,252.5 450,252.5 C452.4852905,252.5 454.5,250.4852905 454.5,248 Z M454.5,248" style="fill:rgb(210,230,255);stroke:none" clip-path="url(#clip74)" />
<clipPath id="clip75"><path d="M444,242 L457,242 L457,255 L444,255 L444,242 Z" /></clipPath>
<path d="M454.5,248 C454.5,245.5147095 452.4852905,243.5 450,243.5 C447.5147095,243.5 445.5,245.5147095 445.5,248 C445.5,250.4852905 447.5147095,252.5 450,252.5 C452.4852905,252.5 454.5,250.4852905 454.5,248 Z M454.5,248" style="fill:none;stroke:rgb(180,200,240)" clip-path="url(#clip75)" />
<clipPath id="clip76"><path d="M444,242 L457,242 L457,255 L444,255 L444,242 Z" /></clipPath>
<path d="M448,248 L452,248" style="fill:none;stroke:rgb(150,160,200)" clip-path="url(#clip76)" />
<clipPath id="clip77"><path d="M463,228 L738,228 L738,249 L463,249 L463,228 Z" /></clipPath>
<path d="M465,247 L735,247" style="fill:none;stroke:rgb(0,64,128)" clip-path="url(#clip77)" />
<text x="470" y="242" style="font:10px Verdana">OS 代码放在共享代码上，任务代码放在核的私有代码段上</text>
<clipPath id="clip78"><path d="M463,248 L668,248 L668,269 L463,269 L463,248 Z" /></clipPath>
<path d="M465,267 L665,267" style="fill:none;stroke:rgb(0,64,128)" clip-path="url(#clip78)" />
<text x="470" y="262" style="font:10px Verdana">OS 和任务的数据均放在核的私有数据段上</text>
<clipPath id="clip79"><path d="M310,268 L488,268 L488,307 L310,307 L310,268 Z" /></clipPath>
<path d="M383,295 L396,295" style="fill:none;stroke:rgb(0,64,128)" clip-path="url(#clip79)" />
<clipPath id="clip80"><path d="M310,268 L488,268 L488,307 L310,307 L310,268 Z" /></clipPath>
<path d="M396,295 C398,289.666687 401,287 405,287" style="fill:none;stroke:rgb(0,64,128)" clip-path="url(#clip80)" />
<clipPath id="clip81"><path d="M310,268 L488,268 L488,307 L310,307 L310,268 Z" /></clipPath>
<path d="M396,295 C398,301.666687 401,305 405,305" style="fill:none;stroke:rgb(0,64,128)" clip-path="url(#clip81)" />
<clipPath id="clip82"><path d="M310,278 L386,278 L386,297 L310,297 L310,278 Z" /></clipPath>
<path d="M312,295 L383,295" style="fill:none;stroke:rgb(0,64,128)" clip-path="url(#clip82)" />
<text x="317" y="292" style="font:10px Verdana">需要做的改变</text>
<clipPath id="clip83"><path d="M384,281 L397,281 L397,294 L384,294 L384,281 Z" /></clipPath>
<path d="M394.5,287 C394.5,284.5147095 392.4852905,282.5 390,282.5 C387.5147095,282.5 385.5,284.5147095 385.5,287 C385.5,289.4852905 387.5147095,291.5 390,291.5 C392.4852905,291.5 394.5,289.4852905 394.5,287 Z M394.5,287" style="fill:rgb(210,230,255);stroke:none" clip-path="url(#clip83)" />
<clipPath id="clip84"><path d="M384,281 L397,281 L397,294 L384,294 L384,281 Z" /></clipPath>
<path d="M394.5,287 C394.5,284.5147095 392.4852905,282.5 390,282.5 C387.5147095,282.5 385.5,284.5147095 385.5,287 C385.5,289.4852905 387.5147095,291.5 390,291.5 C392.4852905,291.5 394.5,289.4852905 394.5,287 Z M394.5,287" style="fill:none;stroke:rgb(180,200,240)" clip-path="url(#clip84)" />
<clipPath id="clip85"><path d="M384,281 L397,281 L397,294 L384,294 L384,281 Z" /></clipPath>
<path d="M388,287 L392,287" style="fill:none;stroke:rgb(150,160,200)" clip-path="url(#clip85)" />
<clipPath id="clip86"><path d="M403,268 L488,268 L488,289 L403,289 L403,268 Z" /></clipPath>
<path d="M405,287 L485,287" style="fill:none;stroke:rgb(0,64,128)" clip-path="url(#clip86)" />
<text x="410" y="282" style="font:10px Verdana">OS 层次化设计</text>
<clipPath id="clip87"><path d="M403,288 L479,288 L479,307 L403,307 L403,288 Z" /></clipPath>
<path d="M405,305 L476,305" style="fill:none;stroke:rgb(0,64,128)" clip-path="url(#clip87)" />
<text x="410" y="302" style="font:10px Verdana">多核链接问题</text>
</svg>
